<svg xmlns="http://www.w3.org/2000/svg" viewBox="0 0 1200 400" aria-hidden="true">
  <defs>
    <radialGradient id="nebula" cx="50%" cy="30%" r="70%">
      <stop offset="0%" stop-color="#1a2340" stop-opacity="0.9"/>
      <stop offset="50%" stop-color="#0e1320" stop-opacity="0.6"/>
      <stop offset="100%" stop-color="#080a12" stop-opacity="0"/>
    </radialGradient>
    <radialGradient id="glow" cx="60%" cy="20%" r="50%">
      <stop offset="0%" stop-color="#d4a574" stop-opacity="0.08"/>
      <stop offset="100%" stop-color="#d4a574" stop-opacity="0"/>
    </radialGradient>
  </defs>
  <rect width="100%" height="100%" fill="url(#nebula)"/>
  <rect width="100%" height="100%" fill="url(#glow)"/>
  <!-- Stars -->
  <g fill="#e4e6ef" fill-opacity="0.6">
    <circle cx="120" cy="80" r="1.5"/>
    <circle cx="280" cy="120" r="1"/>
    <circle cx="450" cy="60" r="2"/>
    <circle cx="620" cy="140" r="1"/>
    <circle cx="780" cy="90" r="1.5"/>
    <circle cx="950" cy="170" r="1"/>
    <circle cx="1100" cy="50" r="2"/>
    <circle cx="150" cy="200" r="1"/>
    <circle cx="320" cy="250" r="1.5"/>
    <circle cx="500" cy="220" r="1"/>
    <circle cx="680" cy="280" r="2"/>
    <circle cx="850" cy="240" r="1"/>
    <circle cx="1020" cy="300" r="1.5"/>
    <circle cx="200" cy="320" r="1"/>
    <circle cx="400" cy="360" r="1.5"/>
    <circle cx="580" cy="340" r="1"/>
    <circle cx="750" cy="380" r="2"/>
    <circle cx="920" cy="350" r="1"/>
  </g>
</svg>
